<svg xmlns="http://www.w3.org/2000/svg" xmlns:xlink="http://www.w3.org/1999/xlink" width="125.46" height="56.76" viewBox="0 0 125.46 56.76"><defs><style>.a{clip-rule:evenodd;}.b{opacity:0.9;}.c{fill:#fe9a11;}.c,.f,.h,.j,.k{fill-rule:evenodd;}.d{clip-path:url(#a);}.e{fill:#febf4d;}.f{fill:none;}.g{fill:#f6ae36;}.h{fill:#5b984b;}.i{clip-path:url(#b);}.j{fill:#a6410b;}.k{fill:#fc2;}.l{fill:#f53e36;}</style><clipPath id="a"><path class="a" d="M14.677,116.731H41.968a14.72,14.72,0,0,0,14.677-14.677V14.677A14.72,14.72,0,0,0,41.968,0H14.677A14.72,14.72,0,0,0,0,14.677v87.377A14.72,14.72,0,0,0,14.677,116.731Z"/></clipPath><clipPath id="b"><path class="a" d="M36.993,33.262a7.03,7.03,0,0,0,7.013-6.549A9.264,9.264,0,0,0,56.409,18C56.409,5.533,37.352,0,27,0,13.529,0,0,3.1,0,18.517A13.21,13.21,0,0,0,17.009,31.161a9.945,9.945,0,0,0,16.33,1.078,7,7,0,0,0,3.653,1.023Z" transform="translate(0 0)"/></clipPath></defs><g class="b" transform="translate(125.46) rotate(90)"><path class="c" d="M14.677,116.731H41.968a14.72,14.72,0,0,0,14.677-14.677V14.677A14.72,14.72,0,0,0,41.968,0H14.677A14.72,14.72,0,0,0,0,14.677v87.377A14.72,14.72,0,0,0,14.677,116.731Z" transform="translate(0.115 0)"/><g class="d" transform="translate(0.115 0)"><g transform="translate(-13.301 8.597)"><rect class="e" width="58.48" height="77.632" rx="29.24"/></g></g><path class="f" d="M14.677,116.731H41.968a14.72,14.72,0,0,0,14.677-14.677V14.677A14.72,14.72,0,0,0,41.968,0H14.677A14.72,14.72,0,0,0,0,14.677v87.377A14.72,14.72,0,0,0,14.677,116.731Z" transform="translate(0.115 0)"/><ellipse class="g" cx="4.429" cy="4.429" rx="4.429" ry="4.429" transform="translate(6.88 42.427)"/><ellipse class="g" cx="4.738" cy="4.738" rx="4.738" ry="4.738" transform="translate(22.168 17.842)"/><ellipse class="g" cx="3.669" cy="3.669" rx="3.669" ry="3.669" transform="translate(8.027 12.842)"/><ellipse class="g" cx="1.949" cy="1.949" rx="1.949" ry="1.949" transform="translate(7.798 71.552)"/><ellipse class="g" cx="3.039" cy="3.039" rx="3.039" ry="3.039" transform="translate(25.399 59.34)"/><path class="h" d="M36.993,33.262a7.03,7.03,0,0,0,7.013-6.549A9.264,9.264,0,0,0,56.409,18C56.409,5.533,37.352,0,27,0,13.529,0,0,3.1,0,18.517A13.21,13.21,0,0,0,17.009,31.161a9.945,9.945,0,0,0,16.33,1.078,7,7,0,0,0,3.653,1.023Z" transform="translate(0 89.455)"/><g class="i" transform="translate(0 89.455)"><g transform="translate(-4.022 -12.12)"><path class="j" d="M19.688,20.128a7.927,7.927,0,0,0,4.849-1.647A6.525,6.525,0,0,0,35.32,14.589c.1,0,.2.007.3.007A7.3,7.3,0,1,0,28.32,7.1a6.489,6.489,0,0,0-2.084.531,7.964,7.964,0,0,0-11.3-1.861,8.185,8.185,0,1,0-1.7,11.063,7.953,7.953,0,0,0,6.451,3.294Z" transform="translate(8.227 17.762)"/><path class="k" d="M12.031,5.884A16.7,16.7,0,0,1,20.5,7.146c1.579-3.606,6.132-6.5,11.74-7.053C37.5-.425,42.254,1.257,44.683,4.131a10.306,10.306,0,0,1,5.1-1.968c6.2-.611,11.781,4.507,12.463,11.431s-3.791,13.034-9.991,13.645c-5.894.581-11.227-4.015-12.327-10.419a18.136,18.136,0,0,1-5.883,1.58,16.991,16.991,0,0,1-8.9-1.4c-1.611,3.424-5.991,6.155-11.366,6.684C6.674,24.39.515,20.973.03,16.056s4.888-9.471,12-10.172Z" transform="translate(0 9.445)"/><ellipse class="l" cx="15.422" cy="15.422" rx="15.422" ry="15.422" transform="translate(8.292 0)"/></g></g><path class="f" d="M36.993,33.262a7.03,7.03,0,0,0,7.013-6.549A9.264,9.264,0,0,0,56.409,18C56.409,5.533,37.352,0,27,0,13.529,0,0,3.1,0,18.517A13.21,13.21,0,0,0,17.009,31.161a9.945,9.945,0,0,0,16.33,1.078,7,7,0,0,0,3.653,1.023Z" transform="translate(0 89.455)"/></g></svg>